<svg data-v-0dd9719b="" version="1.0" xmlns="http://www.w3.org/2000/svg" xmlns:xlink="http://www.w3.org/1999/xlink" width="100%" height="100%" viewBox="0 0 340.000000 250.000000" preserveAspectRatio="xMidYMid meet" color-interpolation-filters="sRGB" style="margin: auto;"> <rect data-v-0dd9719b="" x="0" y="0" width="100%" height="100%" fill="#fff" fill-opacity="1" class="background"></rect> <rect data-v-0dd9719b="" x="0" y="0" width="100%" height="100%" fill="url(#watermark)" fill-opacity="1" class="watermarklayer"></rect> <g data-v-0dd9719b="" fill="#333" class="icon-text-wrapper icon-svg-group iconsvg" transform="translate(47.915000915527344,95)"><g class="iconsvg-imagesvg" transform="translate(0,0)"><g><rect fill="#333" fill-opacity="0" stroke-width="2" x="0" y="0" width="60" height="60" class="image-rect"></rect> <svg x="0" y="0" width="60" height="60" filtersec="colorsb5289248342" class="image-svg-svg primary" style="overflow: visible;"><svg xmlns="http://www.w3.org/2000/svg" xlink="http://www.w3.org/1999/xlink" viewBox="-0.00001526152300357353 0.000022293534129858017 100.00001525878906 100.00041961669922"><defs><linearGradient id="ae9ebe824-1069-4bd7-aa22-69a1e99b2392" x1="98.08" y1="42.98" x2="52.67" y2="7.89" gradientUnits="userSpaceOnUse"><stop offset="0" stop-color="#f1ba2e"></stop><stop offset="1" stop-color="#cd5626"></stop></linearGradient><linearGradient id="bd0b7544f-de19-46a1-8726-aa70bee9fbdb" x1="55.48" y1="1.36" x2="8.87" y2="37.77" href="#ae9ebe824-1069-4bd7-aa22-69a1e99b2392"></linearGradient><linearGradient id="cfbec4458-9744-44c4-9ac3-3aafc827c86a" x1="19.62" y1="88.64" x2="72.98" y2="87.71" href="#ae9ebe824-1069-4bd7-aa22-69a1e99b2392"></linearGradient><linearGradient id="d433b2ac0-5ee3-4af6-a7bc-6f920ffd1257" x1="69.75" y1="91.52" x2="87.62" y2="41.74" href="#ae9ebe824-1069-4bd7-aa22-69a1e99b2392"></linearGradient><linearGradient id="e94be5ab9-84c5-445d-8232-fc955e744056" x1="7.73" y1="32.05" x2="28.39" y2="84.08" href="#ae9ebe824-1069-4bd7-aa22-69a1e99b2392"></linearGradient><linearGradient id="f1c361ce2-82cd-4c0f-a7fe-f76d79cd90af" x1="43.2" y1="50.12" x2="56.37" y2="49.89" href="#ae9ebe824-1069-4bd7-aa22-69a1e99b2392"></linearGradient></defs><path d="M99.39 42.15H85a36.75 36.75 0 0 1-35-25.39L55.34.28a50.06 50.06 0 0 1 41.8 33q.77 2.13 1.32 4.35c.38 1.49.69 3 .93 4.52z" fill="url(#ae9ebe824-1069-4bd7-aa22-69a1e99b2392)"></path><path d="M55.34.28L50 16.73a36.73 36.73 0 0 1-35 25.42L2.86 33.3A50.06 50.06 0 0 1 44.65.28a51.16 51.16 0 0 1 10.69 0z" fill="url(#bd0b7544f-de19-46a1-8726-aa70bee9fbdb)"></path><path d="M74.9 93.37a50.07 50.07 0 0 1-49.8 0 50.37 50.37 0 0 1-5.54-3.7l8.83-6.42a36.76 36.76 0 0 1 43.2 0z" fill="url(#cfbec4458-9744-44c4-9ac3-3aafc827c86a)"></path><path d="M100 50a50.09 50.09 0 0 1-25.1 43.37l-3.3-10.12-8.25-25.4L85 42.15h14.39A50.81 50.81 0 0 1 100 50z" fill="url(#d433b2ac0-5ee3-4af6-a7bc-6f920ffd1257)"></path><path d="M36.65 57.85l-8.26 25.4-8.83 6.42A49.93 49.93 0 0 1 0 50a50.68 50.68 0 0 1 .61-7.84 49.37 49.37 0 0 1 2.25-8.86L15 42.15z" fill="url(#e94be5ab9-84c5-445d-8232-fc955e744056)"></path><circle cx="50" cy="50" r="6.82" fill="url(#f1c361ce2-82cd-4c0f-a7fe-f76d79cd90af)"></circle></svg></svg> <!----></g></g> <g transform="translate(67,1.2922859191894531)"><g data-gra="path-name" fill-rule="" class="tp-name iconsvg-namesvg" transform="translate(0,0)"><g transform="scale(1)"><g><path d="M17.64-7.69L17.64-0.36 32.22-0.36 32.22-7.69 17.64-7.69ZM18.09-9L37.3-9 37.3 2.7Q37.3 2.83 36.81 3.06L36.81 3.06Q36.36 3.33 35.32 3.55L35.32 3.55Q34.34 3.78 33.16 3.78L33.16 3.78 32.22 3.78 32.22 0.94 17.64 0.94 17.64 2.88Q17.64 3.06 17.19 3.28L17.19 3.28Q16.74 3.55 15.75 3.78 14.76 4 13.63 4L13.63 4 12.78 4 12.78-11.03 18.09-9ZM26.5-14.63L32.22-14.63 32.22-19.39 26.5-19.39 26.5-14.63ZM32.22-24.93L26.5-24.93 26.5-20.7 32.22-20.7 32.22-24.93ZM37.03-20.7L44.14-20.7 44.14-19.39 37.03-19.39 37.03-12.78Q36.99-12.51 35.55-12.06 34.11-11.61 32.98-11.61L32.98-11.61 32.22-11.61 32.22-13.37 26.5-13.37 26.5-11.21Q26.5-10.98 25.88-10.66L25.88-10.66Q25.29-10.39 24.25-10.13L24.25-10.13Q23.27-9.9 22.32-9.9L22.32-9.9 21.42-9.9 21.42-13.37 13-13.37 12.6-14.63 21.42-14.63 21.42-19.39 11.61-19.39 11.34-20.7 21.42-20.7 21.42-24.93 13.23-24.93 12.82-26.19 21.42-26.19 21.42-30.42 26.5-29.83 26.5-26.19 37.03-26.19 37.03-20.7ZM11.34-30.69L11.34-20.97Q11.34-16.83 11.03-14.08L11.03-14.08Q10.71-11.38 9.76-7.88L9.76-7.88Q8.87-4.41 6.75-1.4 4.63 1.62 1.44 3.96L1.44 3.96 0.99 3.6Q4.09-1.3 5.04-7.25L5.04-7.25Q6.03-13.23 6.03-20.97L6.03-20.97 6.03-34.16 12.15-31.99 22.99-31.99Q22.45-33.52 21.15-35.19L21.15-35.19Q19.84-36.9 18.45-38.07L18.45-38.07 18.81-38.38Q25.24-38.7 27.13-35.91L27.13-35.91Q28.3-34.2 27.18-32.67L27.18-32.67Q26.91-32.27 26.55-31.99L26.55-31.99 43.2-31.99 43.2-30.69 11.34-30.69ZM80.1-1.57L80.1-27.77 85.68-27.09Q85.68-27.09 85.68 2.38L85.68 2.38Q85.68 2.79 84.1 3.42L84.1 3.42Q82.57 4.05 81.09 4.05L81.09 4.05 80.1 4.05 80.1-0.27 49.14-0.27 49.14-27.77 54.72-27.04 54.72-1.57 64.48-1.57 64.48-37.39 70.11-36.67 70.11-1.57 80.1-1.57ZM110.03-26.5L110.03-33.52 102.73-33.52 102.73-26.5 110.03-26.5ZM122.35-26.5L122.35-33.52 115.11-33.52 115.11-26.5 122.35-26.5ZM115.11-25.24L115.11-17.86 122.35-17.86 122.35-25.24 115.11-25.24ZM102.73-25.24L102.73-17.86 110.03-17.86 110.03-25.24 102.73-25.24ZM122.35-16.56L102.73-16.56 102.73-15.07Q102.73-14.63 101.25-13.95L101.25-13.95Q99.77-13.32 98.19-13.32L98.19-13.32 97.42-13.32 97.42-37.08 103.09-34.83 127.66-34.83 127.66-15.48Q127.62-15.3 126.9-14.98L126.9-14.98Q126.22-14.67 125.14-14.4 124.06-14.13 123.25-14.13L123.25-14.13 122.35-14.13 122.35-16.56ZM109.53-14.76L109.53-14.76 109.89-15.03Q116.23-13.68 117.77-10.21L117.77-10.21Q118.71-8.05 117.36-6.48L117.36-6.48Q116.06-4.95 114.08-5.8L114.08-5.8Q113.53-6.03 113.04-6.43L113.04-6.43Q112.95-8.5 111.91-10.75L111.91-10.75Q110.92-13.05 109.53-14.76ZM96.93-12.01L96.93-12.01 97.47-12.06Q98.78-9.18 98.86-6.61 98.95-4.05 98.19-2.48 97.42-0.9 96.12-0.14L96.12-0.14Q94.86 0.72 93.42 0.32 91.98-0.09 91.53-1.48L91.53-1.48Q90.77-3.96 93.56-5.49L93.56-5.49Q95-6.3 96.03-8.1L96.03-8.1Q97.06-9.95 96.93-12.01ZM123.07-8.1L123.57-8.1 123.7-2.61Q124.88-2.21 125.28-1.71L125.28-1.71Q125.69-1.26 125.69-0.49L125.69-0.49Q125.69 1.26 123.39 1.89L123.39 1.89Q121.14 2.56 114.48 2.56L114.48 2.56 108.63 2.56Q104.76 2.56 103.5 1.71 102.24 0.85 102.24-1.89L102.24-1.89 102.24-12.78 107.55-12.24 107.55-2.92Q107.55-2.38 107.86-2.21L107.86-2.21Q108.22-2.07 109.48-2.07L109.48-2.07 115.06-2.07Q118.8-2.07 119.52-2.11L119.52-2.11Q120.47-2.16 120.91-2.79L120.91-2.79Q121.63-3.82 123.07-8.1L123.07-8.1ZM123.25-12.01L123.25-12.01 123.66-12.33Q130.81-10.39 132.84-6.21L132.84-6.21Q134.06-3.6 132.8-1.67L132.8-1.67Q131.67 0.04 129.69-0.49L129.69-0.49Q128.88-0.72 128.07-1.4L128.07-1.4Q127.89-4.09 126.54-6.97 125.19-9.86 123.25-12.01ZM153.18-37.89L153.18-37.89 153.5-38.16Q159.75-38.07 161.41-35.23L161.41-35.23Q162.41-33.48 161.15-31.86 159.88-30.24 157.81-30.78L157.81-30.78Q156.96-30.96 156.19-31.54L156.19-31.54Q156.15-33.25 155.29-35.01L155.29-35.01Q154.49-36.77 153.18-37.89ZM137.75-20.16L178.16-20.16 178.16-18.86 160.38-18.86 160.38-2.65Q160.38 0.49 158.85 2.11 157.32 3.73 152.78 4.05L152.78 4.05Q152.55 1.17 151.47 0.09L151.47 0.09Q149.85-1.3 146.61-1.75L146.61-1.75 146.61-2.34Q152.59-1.98 153.76-1.98L153.76-1.98Q154.8-1.98 154.8-2.83L154.8-2.83 154.8-18.86 138.1-18.86 137.75-20.16ZM143.46-30.6L176.94-30.6 176.94-28.26Q174.1-25.52 170.24-23.49L170.24-23.49 169.88-23.76Q170.64-26.1 171.22-29.34L171.22-29.34 143.69-29.34Q143.96-26.91 143.28-25.15L143.28-25.15Q142.6-23.45 141.3-22.63L141.3-22.63Q140.18-21.82 138.65-22.23L138.65-22.23Q137.12-22.68 136.57-24.07L136.57-24.07Q135.9-26.64 138.65-28.08L138.65-28.08Q140-28.75 141.03-30.24L141.03-30.24Q142.11-31.72 142.06-33.3L142.06-33.3 142.65-33.3Q143.19-31.86 143.46-30.6L143.46-30.6Z" transform="translate(-0.9900000095367432, 38.412925720214844)"></path></g> <!----> <!----> <!----> <!----> <!----> <!----> <!----></g></g> <g data-gra="path-slogan" fill-rule="" class="tp-slogan iconsvg-slogansvg" fill="#333" transform="translate(5,48.46292495727539)"><rect x="0" height="1" y="3.9750003814697266" width="25.670001983642578"></rect> <rect height="1" y="3.9750003814697266" width="25.670001983642578" x="141.49999618530273"></rect> <g transform="translate(28.670001983642578,0)"><g transform="scale(1)"><path d="M3.09-7.59L0.19-7.59L0.19-8.58L7.13-8.58L7.13-7.59L4.22-7.59L4.22 0L3.09 0L3.09-7.59ZM13.83 0L12.98-2.48L9.52-2.48L8.63 0L7.45 0L10.69-8.58L12-8.58L15.09 0L13.83 0ZM11.25-7.31L9.89-3.52L12.56-3.52L11.30-7.31L11.25-7.31ZM17.53-8.58L21.84-1.64L21.84-8.58L22.97-8.58L22.97 0L21.66 0L17.30-6.94L17.25-6.94L17.25 0L16.13 0L16.13-8.58L17.53-8.58ZM31.17-3.61L28.55-3.61L28.55-4.59L32.30-4.59L32.30 0L31.55 0L31.27-1.08Q30.28 0.09 28.45 0.14L28.45 0.14Q26.72 0.14 25.78-0.75L25.78-0.75Q24.38-2.06 24.42-4.36L24.42-4.36Q24.75-8.63 28.50-8.81L28.50-8.81Q31.69-8.63 32.16-6L32.16-6L31.03-6Q30.56-7.78 28.45-7.83L28.45-7.83Q25.78-7.64 25.64-4.31L25.64-4.31Q25.64-0.75 28.50-0.75L28.50-0.75Q29.53-0.75 30.28-1.31L30.28-1.31Q31.22-2.06 31.17-3.61L31.17-3.61ZM40.36-6.09L40.36-6.09L39.28-6.09Q39.19-7.73 37.13-7.83L37.13-7.83Q35.20-7.78 35.20-6.33L35.20-6.33Q35.20-5.39 36.23-5.25L36.23-5.25L38.67-4.69Q40.59-4.22 40.59-2.34L40.59-2.34Q40.55 0.05 37.22 0.14L37.22 0.14Q35.39 0.14 34.64-0.61L34.64-0.61Q33.70-1.31 33.75-2.77L33.75-2.77L34.88-2.77Q34.92-0.80 37.22-0.75L37.22-0.75Q39.47-0.80 39.52-2.20L39.52-2.20Q39.70-3.38 37.64-3.75L37.64-3.75L35.86-4.13Q34.03-4.64 34.03-6.19L34.03-6.19Q34.17-8.72 37.03-8.81L37.03-8.81Q40.27-8.81 40.36-6.09ZM43.22-5.06L47.72-5.06L47.72-8.58L48.89-8.58L48.89 0L47.72 0L47.72-3.98L43.22-3.98L43.22 0L42.05 0L42.05-8.58L43.22-8.58L43.22-5.06ZM56.34 0L55.50-2.48L52.03-2.48L51.14 0L49.97 0L53.20-8.58L54.52-8.58L57.61 0L56.34 0ZM53.77-7.31L52.41-3.52L55.08-3.52L53.81-7.31L53.77-7.31ZM60.05-8.58L64.36-1.64L64.36-8.58L65.48-8.58L65.48 0L64.17 0L59.81-6.94L59.77-6.94L59.77 0L58.64 0L58.64-8.58L60.05-8.58ZM76.88-6.09L76.88-6.09L75.80-6.09Q75.70-7.73 73.64-7.83L73.64-7.83Q71.72-7.78 71.72-6.33L71.72-6.33Q71.72-5.39 72.75-5.25L72.75-5.25L75.19-4.69Q77.11-4.22 77.11-2.34L77.11-2.34Q77.06 0.05 73.73 0.14L73.73 0.14Q71.91 0.14 71.16-0.61L71.16-0.61Q70.22-1.31 70.27-2.77L70.27-2.77L71.39-2.77Q71.44-0.80 73.73-0.75L73.73-0.75Q75.98-0.80 76.03-2.20L76.03-2.20Q76.22-3.38 74.16-3.75L74.16-3.75L72.38-4.13Q70.55-4.64 70.55-6.19L70.55-6.19Q70.69-8.72 73.55-8.81L73.55-8.81Q76.78-8.81 76.88-6.09ZM78.75-8.58L79.92-8.58L79.92 0L78.75 0L78.75-8.58ZM83.30-8.58L87.61-1.64L87.61-8.58L88.73-8.58L88.73 0L87.42 0L83.06-6.94L83.02-6.94L83.02 0L81.89 0L81.89-8.58L83.30-8.58ZM90.70-8.58L91.88-8.58L91.88 0L90.70 0L90.70-8.58ZM95.25-8.58L99.56-1.64L99.56-8.58L100.69-8.58L100.69 0L99.38 0L95.02-6.94L94.97-6.94L94.97 0L93.84 0L93.84-8.58L95.25-8.58ZM108.89-3.61L106.27-3.61L106.27-4.59L110.02-4.59L110.02 0L109.27 0L108.98-1.08Q108 0.09 106.17 0.14L106.17 0.14Q104.44 0.14 103.50-0.75L103.50-0.75Q102.09-2.06 102.14-4.36L102.14-4.36Q102.47-8.63 106.22-8.81L106.22-8.81Q109.41-8.63 109.88-6L109.88-6L108.75-6Q108.28-7.78 106.17-7.83L106.17-7.83Q103.50-7.64 103.36-4.31L103.36-4.31Q103.36-0.75 106.22-0.75L106.22-0.75Q107.25-0.75 108-1.31L108-1.31Q108.94-2.06 108.89-3.61L108.89-3.61Z" transform="translate(-0.1875, 8.8125)"></path></g></g></g></g></g><defs v-gra="od"></defs></svg>